<svg width="20" height="16" viewBox="0 0 20 16" fill="none" xmlns="http://www.w3.org/2000/svg">
    <path d="M17.3457 0.400489C16.8645 0.417184 16.4086 0.628451 16.0749 0.989155C12.534 4.67964 9.82963 7.76212 6.54361 11.2504L3.04288 8.17439V8.17459C2.66775 7.84467 2.18177 7.68349 1.69222 7.72681C1.20281 7.77014 0.749904 8.01439 0.433826 8.40533C0.117562 8.79646 -0.035894 9.30227 0.00710256 9.81126C0.0500992 10.3202 0.286104 10.7905 0.662937 11.1184L5.46903 15.3479V15.3477C5.82275 15.6575 6.27509 15.8183 6.73696 15.7982C7.19903 15.7784 7.63701 15.579 7.96458 15.2396C11.9463 11.0896 14.7807 7.77518 18.6861 3.70489V3.70509C19.0459 3.34337 19.2495 2.84549 19.25 2.32521C19.2508 1.80472 19.0486 1.30647 18.6897 0.943751C18.3308 0.581043 17.846 0.385104 17.3459 0.400775L17.3457 0.400489Z" fill="#FFBB38"/>
</svg>
